<svg xmlns="http://www.w3.org/2000/svg" xmlns:xlink="http://www.w3.org/1999/xlink" version="1.1" viewBox="0 0 512 512">
	<style type="text/css">
	<![CDATA[
        svg > svg:not(:target) {
            display: none;
        }
	]]>
	</style>
	<defs>
		<g id="g" fill="none" fill-rule="evenodd">
			<path d="M482.56 261.36c0-16.73-1.5-32.83-4.29-48.27H256v91.29h127.01c-5.47 29.5-22.1 54.49-47.09 71.23v59.21h76.27c44.63-41.09 70.37-101.59 70.37-173.46z" fill="#4285f4"/>
			<path d="M256 492c63.72 0 117.14-21.13 156.19-57.18l-76.27-59.21c-21.13 14.16-48.17 22.53-79.92 22.53-61.47 0-113.49-41.51-132.05-97.3H45.1v61.15c38.83 77.13 118.64 130.01 210.9 130.01z" fill="#34a853"/>
			<path d="M123.95 300.84c-4.72-14.16-7.4-29.29-7.4-44.84s2.68-30.68 7.4-44.84V150.01H45.1C29.12 181.87 20 217.92 20 256c0 38.08 9.12 74.13 25.1 105.99l78.85-61.15z" fill="#fbbc05"/>
			<path d="M256 113.86c34.65 0 65.76 11.91 90.22 35.29l67.69-67.69C373.03 43.39 319.61 20 256 20c-92.25 0-172.07 52.89-210.9 130.01l78.85 61.15c18.56-55.78 70.59-97.3 132.05-97.3z" fill="#ea4335"/>
			<path d="M20 20h472v472H20V20z"/>
		</g>
		<g id="f" fill-rule="evenodd" fill="none">
			<style type="text/css">
            .st0{fill:url(#SVGID_1_);}
            .st1{fill:#FFFFFF;}
            </style>
			<linearGradient id="SVGID_1_" gradientUnits="userSpaceOnUse">
				<stop offset="0" style="stop-color:#0062E0"/>
				<stop offset="1" style="stop-color:#19AFFF"/>
			</linearGradient>
			<path class="st0" d="M16.7,39.8C7.2,38.1,0,29.9,0,20C0,9,9,0,20,0s20,9,20,20c0,9.9-7.2,18.1-16.7,19.8l-1.1-0.9h-4.4L16.7,39.8z"/>
			<path d="M27.8,25.6l0.9-5.6h-5.3v-3.9c0-1.6,0.6-2.8,3-2.8h2.6V8.2c-1.4-0.2-3-0.4-4.4-0.4c-4.6,0-7.8,2.8-7.8,7.8V20  h-5v5.6h5v14.1c1.1,0.2,2.2,0.3,3.3,0.3c1.1,0,2.2-0.1,3.3-0.3V25.6H27.8z" class="st1"/>
		</g>
		<g id="y" x="0px" y="0px" style="enable-background:new 0 0 533.33 533.33;" xml:space="preserve">
			<path d="M317.119,340.347c-9.001,9.076-1.39,25.586-1.39,25.586l67.757,113.135c0,0,11.124,14.915,20.762,14.915   c9.683,0,19.246-7.952,19.246-7.952l53.567-76.567c0,0,5.395-9.658,5.52-18.12c0.193-12.034-17.947-15.33-17.947-15.33   l-126.816-40.726C337.815,335.292,325.39,331.994,317.119,340.347z M310.69,283.325c6.489,11.004,24.389,7.798,24.389,7.798   l126.532-36.982c0,0,17.242-7.014,19.704-16.363c2.415-9.352-2.845-20.637-2.845-20.637l-60.468-71.225   c0,0-5.24-9.006-16.113-9.912c-11.989-1.021-19.366,13.489-19.366,13.489l-71.494,112.505   C311.029,261.999,304.709,273.203,310.69,283.325z M250.91,239.461c14.9-3.668,17.265-25.314,17.265-25.314l-1.013-180.14   c0,0-2.247-22.222-12.232-28.246c-15.661-9.501-20.303-4.541-24.79-3.876l-105.05,39.033c0,0-10.288,3.404-15.646,11.988   c-7.651,12.163,7.775,29.972,7.775,29.972l109.189,148.831C226.407,231.708,237.184,242.852,250.91,239.461z M224.967,312.363   c0.376-13.894-16.682-22.239-16.682-22.239L95.37,233.079c0,0-16.732-6.899-24.855-2.091c-6.224,3.677-11.738,10.333-12.277,16.216   l-7.354,90.528c0,0-1.103,15.685,2.963,22.821c5.758,10.128,24.703,3.074,24.703,3.074L210.37,334.49   C215.491,331.048,224.471,330.739,224.967,312.363z M257.746,361.219c-11.315-5.811-24.856,6.224-24.856,6.224l-88.265,97.17   c0,0-11.012,14.858-8.212,23.982c2.639,8.552,7.007,12.802,13.187,15.797l88.642,27.982c0,0,10.747,2.231,18.884-0.127   c11.552-3.349,9.424-21.433,9.424-21.433l2.003-131.563C268.552,379.253,268.101,366.579,257.746,361.219z" fill="#D80027"/>
		</g>
        <g id="star"><path d="M316.9 18C311.6 7 300.4 0 288.1 0s-23.4 7-28.8 18L195 150.3 51.4 171.5c-12 1.8-22 10.2-25.7 21.7s-.7 24.2 7.9 32.7L137.8 329 113.2 474.7c-2 12 3 24.2 12.9 31.3s23 8 33.8 2.3l128.3-68.5 128.3 68.5c10.8 5.7 23.9 4.9 33.8-2.3s14.9-19.3 12.9-31.3L438.5 329 542.7 225.9c8.6-8.5 11.7-21.2 7.9-32.7s-13.7-19.9-25.7-21.7L381.2 150.3 316.9 18z"/></g>
        <g id="star-o"><path d="M287.9 0c9.2 0 17.6 5.2 21.6 13.5l68.6 141.3 153.2 22.6c9 1.3 16.5 7.6 19.3 16.3s.5 18.1-5.9 24.5L433.6 328.4l26.2 155.6c1.5 9-2.2 18.1-9.7 23.5s-17.3 6-25.3 1.7l-137-73.2L151 509.1c-8.1 4.3-17.9 3.7-25.3-1.7s-11.2-14.5-9.7-23.5l26.2-155.6L31.1 218.2c-6.5-6.4-8.7-15.9-5.9-24.5s10.3-14.9 19.3-16.3l153.2-22.6L266.3 13.5C270.4 5.2 278.7 0 287.9 0zm0 79L235.4 187.2c-3.5 7.1-10.2 12.1-18.1 13.3L99 217.9 184.9 303c5.5 5.5 8.1 13.3 6.8 21L171.4 443.7l105.2-56.2c7.1-3.8 15.6-3.8 22.6 0l105.2 56.2L384.2 324.1c-1.3-7.7 1.2-15.5 6.8-21l85.9-85.1L358.6 200.5c-7.8-1.2-14.6-6.1-18.1-13.3L287.9 79z"/></g>
        <g id="star-h"><path d="M288 376.4l.1-.1 26.4 14.1 85.2 45.5-16.5-97.6-4.8-28.7 20.7-20.5 70.1-69.3-96.1-14.2-29.3-4.3-12.9-26.6L288.1 86.9l-.1 .3V376.4zm175.1 98.3c2 12-3 24.2-12.9 31.3s-23 8-33.8 2.3L288.1 439.8 159.8 508.3C149 514 135.9 513.1 126 506s-14.9-19.3-12.9-31.3L137.8 329 33.6 225.9c-8.6-8.5-11.7-21.2-7.9-32.7s13.7-19.9 25.7-21.7L195 150.3 259.4 18c5.4-11 16.5-18 28.8-18s23.4 7 28.8 18l64.3 132.3 143.6 21.2c12 1.8 22 10.2 25.7 21.7s.7 24.2-7.9 32.7L438.5 329l24.6 145.7z"/></g>
        <g id="prev"><path d="M14.6,18.4L8.3,12l6.4-6.4l0.7,0.7L9.7,12l5.6,5.6L14.6,18.4z"></path></g>
        <g id="next"><path d="M9.4,18.4l-0.7-0.7l5.6-5.6L8.6,6.4l0.7-0.7l6.4,6.4L9.4,18.4z"></path></g>
	</defs>
	<svg xmlns="http://www.w3.org/2000/svg" xmlns:xlink="http://www.w3.org/1999/xlink" version="1.1" id="rpi-logo-g" viewBox="0 0 512 512">
		<use xlink:href="#g"/>
	</svg>
	<svg xmlns="http://www.w3.org/2000/svg" xmlns:xlink="http://www.w3.org/1999/xlink" version="1.1" id="rpi-logo-f" viewBox="0 0 40 40" style="background-color:#3c5b9b">
		<use xlink:href="#f"/>
	</svg>
	<svg xmlns="http://www.w3.org/2000/svg" xmlns:xlink="http://www.w3.org/1999/xlink" version="1.1" id="rpi-logo-y" viewBox="0 0 512 512">
		<use xlink:href="#y"/>
	</svg>
    <svg xmlns="http://www.w3.org/2000/svg" xmlns:xlink="http://www.w3.org/1999/xlink" version="1.1" id="rpi-star" viewBox="0 0 576 512">
		<use xlink:href="#star"/>
	</svg>
    <svg xmlns="http://www.w3.org/2000/svg" xmlns:xlink="http://www.w3.org/1999/xlink" version="1.1" id="rpi-star-o" viewBox="0 0 576 512">
		<use xlink:href="#star-o"/>
	</svg>
    <svg xmlns="http://www.w3.org/2000/svg" xmlns:xlink="http://www.w3.org/1999/xlink" version="1.1" id="rpi-star-h" viewBox="0 0 576 512">
		<use xlink:href="#star-h"/>
	</svg>
    <svg xmlns="http://www.w3.org/2000/svg" xmlns:xlink="http://www.w3.org/1999/xlink" version="1.1" id="rpi-prev" viewBox="8 4 8 15">
		<use xlink:href="#prev"/>
	</svg>
    <svg xmlns="http://www.w3.org/2000/svg" xmlns:xlink="http://www.w3.org/1999/xlink" version="1.1" id="rpi-next" viewBox="8 4 8 15">
		<use xlink:href="#next"/>
	</svg>
	<svg xmlns="http://www.w3.org/2000/svg" id="rpi-ai" viewBox="0 0 144 144">
        <linearGradient id="a" gradientUnits="userSpaceOnUse" x1="45.724" y1="51.844" x2="110.864" y2="106.764" gradientTransform="matrix(1 0 0 -1 0 146)">
            <stop offset="0" style="stop-color:#217bfd"></stop>
            <stop offset=".27" style="stop-color:#078eca"></stop>
            <stop offset=".777" style="stop-color:#a190fe"></stop>
            <stop offset="1" style="stop-color:#bd99fa"></stop>
        </linearGradient>
        <path fill="url(#a)" d="M143.72 71.72c-9.88 0-19-1.87-27.68-5.56-8.69-3.81-16.35-9-22.77-15.42-6.42-6.42-11.61-14.09-15.42-22.77-3.69-8.68-5.56-17.81-5.56-27.68A.29.29 0 0 0 72 0a.28.28 0 0 0-.28.28c0 9.87-1.93 19-5.74 27.68-3.69 8.69-8.82 16.35-15.24 22.77-6.42 6.42-14.09 11.61-22.77 15.42-8.68 3.69-17.81 5.56-27.69 5.56-.15.01-.28.14-.28.29 0 .16.13.28.28.28 9.87 0 19 1.93 27.69 5.74 8.69 3.69 16.35 8.82 22.77 15.24 6.42 6.43 11.55 14.09 15.24 22.78 3.81 8.68 5.74 17.8 5.74 27.68a.28.28 0 1 0 .56 0c0-9.88 1.87-19 5.56-27.68 3.81-8.69 9-16.35 15.42-22.78 6.42-6.42 14.08-11.55 22.77-15.24 8.68-3.81 17.81-5.74 27.68-5.74.16 0 .28-.13.28-.28a.271.271 0 0 0-.27-.28z"></path>
    </svg>
</svg>